<?xml version="1.0" encoding="utf-8"?>
<!-- Generator: Adobe Illustrator 24.1.1, SVG Export Plug-In . SVG Version: 6.00 Build 0)  -->
<svg version="1.1" id="Layer_1" xmlns="http://www.w3.org/2000/svg" xmlns:xlink="http://www.w3.org/1999/xlink" x="0px" y="0px"
	 viewBox="0 0 512 512" style="enable-background:new 0 0 512 512;" xml:space="preserve">
<style type="text/css">
	.st0{fill:#2BA977;}
</style>
<g>
	<path class="st0" d="M235.8,0h83.8v384.2c-42.9,8.1-74.6,11.3-108.8,11.3c-102.4-0.1-155.7-45.9-155.7-133.7
		c0-84.6,56.5-139.6,144.1-139.6c13.6,0,24,1.1,36.5,4.3V0z M238.8,195.8c-9.8-3.2-17.9-4.3-28.3-4.3c-42.4,0-66.9,25.9-66.9,71.2
		c0,44.1,23.4,68.5,66.4,68.5c9.3,0,16.8-0.5,28.8-2.1V195.8z"/>
	<path class="st0" d="M456.8,132.6V325c0,66.3-5,98.1-19.5,125.6c-13.6,26.4-31.5,43.1-68.5,61.5l-77.8-36.7
		c37-17.2,54.9-32.4,66.4-55.6c12-23.7,15.8-51.2,15.8-123.4V132.6H456.8z"/>
	<rect x="364.6" class="st0" width="83.8" height="85.2"/>
</g>
</svg>
